HIERARCHY
ROOT Hips
{
	OFFSET 0.000000 0.000000 0.000000 
	CHANNELS 6 Xposition Yposition Zposition Zrotation Yrotation Xrotation
	JOINT LeftUpLeg
	{
		OFFSET 1.363060 -1.794630 0.839290 
		CHANNELS 3 Zrotation Yrotation Xrotation
		JOINT LeftLeg
		{
			OFFSET 2.448110 -6.726130 0.000000 
			CHANNELS 3 Zrotation Yrotation Xrotation
			JOINT LeftFoot
			{
				OFFSET 2.562200 -7.039590 0.000000 
				CHANNELS 3 Zrotation Yrotation Xrotation
				JOINT LeftToeBase
				{
					OFFSET 0.157640 -0.433110 2.322550 
					CHANNELS 3 Zrotation Yrotation Xrotation
					End Site
					{
						OFFSET 0.000000 0.000000 0.000000 
					}
				}
			}
		}
	}
	JOINT RightUpLeg
	{
		OFFSET -1.305520 -1.794630 0.839290 
		CHANNELS 3 Zrotation Yrotation Xrotation
		JOINT RightLeg
		{
			OFFSET -2.542530 -6.985550 0.000000 
			CHANNELS 3 Zrotation Yrotation Xrotation
			JOINT RightFoot
			{
				OFFSET -2.568260 -7.056230 0.000000 
				CHANNELS 3 Zrotation Yrotation Xrotation
				JOINT RightToeBase
				{
					OFFSET -0.164730 -0.452590 2.363150 
					CHANNELS 3 Zrotation Yrotation Xrotation
					End Site
					{
						OFFSET 0.000000 0.000000 0.000000 
					}
				}
			}
		}
	}
	JOINT Spine
	{
		OFFSET 0.028270 2.035590 -0.193380 
		CHANNELS 3 Zrotation Yrotation Xrotation
		JOINT Spine1
		{
			OFFSET 0.056720 2.048850 -0.042750 
			CHANNELS 3 Zrotation Yrotation Xrotation
			JOINT Neck1
			{
				OFFSET -0.054170 1.746240 0.172020 
				CHANNELS 3 Zrotation Yrotation Xrotation
				JOINT Head
				{
					OFFSET 0.104070 1.761360 -0.123970 
					CHANNELS 3 Zrotation Yrotation Xrotation
					End Site
					{
						OFFSET 0.000000 0.000000 0.000000 
					}
				}
			}
			JOINT LeftArm
			{
				OFFSET 3.362410 1.200890 -0.311210 
				CHANNELS 3 Zrotation Yrotation Xrotation
				JOINT LeftForeArm
				{
					OFFSET 4.983000 -0.000000 -0.000000 
					CHANNELS 3 Zrotation Yrotation Xrotation
					JOINT LeftHand
					{
						OFFSET 3.483560 -0.000000 -0.000000 
						CHANNELS 3 Zrotation Yrotation Xrotation
						JOINT LeftHandIndex1
						{
							OFFSET 0.715260 -0.000000 -0.000000 
							CHANNELS 3 Zrotation Yrotation Xrotation
							End Site
							{
								OFFSET 0.000000 0.000000 0.000000 
							}
						}
					}
				}
			}
			JOINT RightArm
			{
				OFFSET -3.136600 1.374050 -0.404650 
				CHANNELS 3 Zrotation Yrotation Xrotation
				JOINT RightForeArm
				{
					OFFSET -5.241900 -0.000000 -0.000000 
					CHANNELS 3 Zrotation Yrotation Xrotation
					JOINT RightHand
					{
						OFFSET -3.444170 -0.000000 -0.000000 
						CHANNELS 3 Zrotation Yrotation Xrotation
						JOINT RightHandIndex1
						{
							OFFSET -0.622530 -0.000000 -0.000000 
							CHANNELS 3 Zrotation Yrotation Xrotation
							End Site
							{
								OFFSET 0.000000 0.000000 0.000000 
							}
						}
					}
				}
			}
		}
	}
}
MOTION
Frames: 10
Frame Time: 0.041667
24.499596 18.196332 -0.673073 34.797137 -85.157217 -22.849467 -8.125831 -21.096693 -13.861411 -1.014989 6.549883 19.588718 -5.039715 16.748250 0.578400 0.156900 2.552400 7.034900 14.284294 21.308728 -11.341496 -0.490796 -6.912865 23.367707 2.124379 -14.779550 -18.855317 -0.350000 -3.801200 10.518000 0.349738 0.136141 -7.266107 -0.353914 0.329437 -4.173794 -1.713378 -0.610066 35.390593 -1.005000 -0.496700 9.541600 -94.007632 12.625190 2.492643 24.116450 -23.926417 -5.052533 1.347855 0.602635 17.906663 -7.125000 0.000000 0.000000 83.816710 -10.430051 8.514588 -19.858499 22.179971 -5.873554 1.843030 -0.406839 7.062503 7.125000 0.000000 0.000000 
24.495760 18.196219 -0.671494 35.268001 -85.251277 -23.325984 -8.149497 -21.069686 -13.853789 -1.004780 6.568414 19.640772 -5.064477 16.819513 0.554832 0.165600 2.621600 7.226900 14.274569 21.293276 -11.351139 -0.490553 -6.912422 23.360714 2.108671 -14.692037 -18.792125 -0.341000 -3.752400 10.381100 0.351771 0.169995 -7.261527 -0.365035 0.346221 -4.156844 -1.596921 -0.610444 35.396909 -0.951700 -0.493600 9.543900 -94.013483 12.608160 2.516551 24.121489 -23.934097 -5.048274 1.336630 0.615456 17.830664 -7.125000 0.000000 0.000000 83.802775 -10.447026 8.580086 -19.859631 22.179622 -5.874017 1.842383 -0.406782 6.979961 7.125000 0.000000 0.000000 
24.493278 18.193286 -0.669689 35.598636 -85.295416 -23.679279 -8.162508 -21.085399 -13.798953 -1.010249 6.560926 19.627921 -5.076835 16.844204 0.430902 0.160700 2.582700 7.118900 14.268517 21.223242 -11.357996 -0.496324 -6.924737 23.394011 2.079225 -14.576397 -18.787528 -0.333000 -3.708400 10.257700 0.355101 0.187957 -7.243635 -0.370066 0.355469 -4.145213 -1.463551 -0.646309 35.488638 -0.894900 -0.507800 9.589300 -94.032528 12.551831 2.486145 24.106770 -23.927601 -5.047984 1.339264 0.613191 17.871221 -7.125000 0.000000 0.000000 83.783039 -10.465208 8.672072 -19.892196 22.221557 -5.898688 1.840891 -0.394221 6.819837 7.125000 0.000000 0.000000 
24.490796 18.192721 -0.668448 35.571550 -85.290563 -23.672923 -8.156999 -21.155558 -13.743645 -1.011841 6.556578 19.623480 -5.086157 16.863407 0.357102 0.158500 2.565400 7.071100 14.278612 21.192101 -11.343261 -0.498840 -6.928572 23.405365 2.084350 -14.580123 -18.748300 -0.344700 -3.772300 10.436900 0.374675 0.160822 -7.242608 -0.341564 0.343476 -4.151253 -1.424531 -0.639056 35.572908 -0.873800 -0.505500 9.628100 -94.075912 12.498758 2.316688 24.030128 -23.850729 -5.029337 1.357331 0.594271 17.973045 -7.125000 0.000000 0.000000 83.745572 -10.521702 8.774610 -19.921444 22.258633 -5.921605 1.839557 -0.383531 6.706788 7.125000 0.000000 0.000000 
24.489555 18.195429 -0.667996 35.670701 -85.259441 -23.743328 -8.173017 -21.151766 -13.770735 -1.015220 6.549633 19.605581 -5.076729 16.838967 0.374864 0.153100 2.521100 6.948100 14.245900 21.174650 -11.397432 -0.501762 -6.935012 23.418257 2.095417 -14.599050 -18.693943 -0.353500 -3.819800 10.570400 0.390326 0.109162 -7.276291 -0.294410 0.321200 -4.176757 -1.451248 -0.614865 35.562431 -0.874600 -0.500600 9.613000 -94.138726 12.542004 2.182891 24.028659 -23.845172 -5.024195 1.361274 0.584905 18.036508 -7.125000 0.000000 0.000000 83.718935 -10.564536 8.804492 -19.883413 22.205001 -5.892406 1.842085 -0.395801 6.806972 7.125000 0.000000 0.000000 
24.489443 18.197009 -0.668786 35.965183 -85.249589 -23.974969 -8.194404 -21.072251 -13.858650 -1.020036 6.545320 19.592674 -5.047381 16.758125 0.383563 0.156800 2.551600 7.032600 14.191335 21.178123 -11.494259 -0.502091 -6.939363 23.420431 2.109136 -14.640219 -18.669488 -0.339900 -3.746200 10.363700 0.379216 0.110615 -7.335383 -0.270656 0.326022 -4.270450 -1.512463 -0.652520 35.641372 -0.903700 -0.524600 9.631900 -94.143709 12.626800 2.227502 24.069927 -23.881096 -5.034275 1.358754 0.584153 18.058738 -7.125000 0.000000 0.000000 83.775128 -10.643742 8.767185 -19.857196 22.178739 -5.888923 1.840010 -0.399038 6.748317 7.125000 0.000000 0.000000 
24.488202 18.197573 -0.669237 36.369574 -85.289812 -24.330298 -8.197682 -21.048896 -13.896726 -1.023323 6.542528 19.588127 -5.028838 16.702240 0.342721 0.186900 2.784000 7.678000 14.158086 21.245352 -11.539997 -0.501702 -6.940913 23.418556 2.133687 -14.730263 -18.658785 -0.335900 -3.724300 10.302400 0.363247 0.146281 -7.375207 -0.265341 0.344747 -4.344172 -1.628236 -0.659875 35.754375 -0.962500 -0.530200 9.671100 -94.119858 12.642851 2.292026 24.070094 -23.875086 -5.031946 1.357350 0.585876 18.068684 -7.125000 0.000000 0.000000 83.828485 -10.724138 8.743849 -19.894806 22.236389 -5.930511 1.834375 -0.384842 6.558197 7.125000 0.000000 0.000000 
24.486622 18.197009 -0.668561 36.624001 -85.280953 -24.563157 -8.213176 -21.076450 -13.895264 -1.023700 6.539108 19.580836 -5.030565 16.709487 0.362148 0.190500 2.810600 7.751800 14.121836 21.253519 -11.549568 -0.502623 -6.944187 23.425837 2.123556 -14.698807 -18.682218 -0.343900 -3.768400 10.426100 0.361501 0.141882 -7.379199 -0.255432 0.344332 -4.344896 -1.521540 -0.692771 35.788698 -0.915700 -0.544200 9.695000 -94.132126 12.591825 2.248183 24.065381 -23.876024 -5.032590 1.362866 0.575816 18.075340 -7.125000 0.000000 0.000000 83.801467 -10.712460 8.743713 -19.902397 22.241363 -5.929575 1.836003 -0.383540 6.623112 7.125000 0.000000 0.000000 
24.483463 18.195203 -0.667432 36.612298 -85.266444 -24.552044 -8.225537 -21.074763 -13.884548 -1.022726 6.538346 19.571735 -5.058866 16.794113 0.396856 0.154900 2.536000 6.989500 14.106941 21.242297 -11.537447 -0.503089 -6.944834 23.430479 2.088568 -14.582740 -18.731233 -0.350400 -3.803200 10.523500 0.336990 0.163247 -7.404792 -0.281989 0.354780 -4.418811 -1.492703 -0.745282 35.893860 -0.925700 -0.559400 9.733000 -94.104831 12.580903 2.217897 24.013189 -23.813872 -5.014562 1.371896 0.566511 18.133458 -7.125000 0.000000 0.000000 83.860032 -10.752002 8.656298 -19.875666 22.195286 -5.890592 1.841184 -0.398976 6.728993 7.125000 0.000000 0.000000 
24.473535 18.193286 -0.663484 37.288308 -85.378496 -25.286125 -8.270967 -21.090858 -13.759401 -1.020877 6.540147 19.580245 -5.125869 16.978309 0.288355 0.134500 2.363900 6.512600 14.112956 21.217801 -11.459314 -0.502355 -6.942720 23.423633 2.057958 -14.453305 -18.707149 -0.338800 -3.740300 10.347300 0.328420 0.227932 -7.405025 -0.303115 0.386002 -4.439401 -1.521340 -0.780291 35.918211 -0.941700 -0.579000 9.736500 -94.122377 12.631101 2.189270 23.996663 -23.793016 -5.008864 1.370831 0.572039 18.185504 -7.125000 0.000000 0.000000 83.897361 -10.841542 8.628165 -19.870828 22.180158 -5.875462 1.843187 -0.405808 6.716005 7.125000 0.000000 0.000000 
